<?xml version="1.0" standalone="no"?>
<!DOCTYPE svg PUBLIC "-//W3C//DTD SVG 20010904//EN"
 "http://www.w3.org/TR/2001/REC-SVG-20010904/DTD/svg10.dtd">
<svg version="1.0" xmlns="http://www.w3.org/2000/svg"
 width="300.000000pt" height="300.000000pt" viewBox="0 0 300.000000 300.000000"
 preserveAspectRatio="xMidYMid meet">

<g transform="translate(0.000000,300.000000) scale(0.100000,-0.100000)"
fill="#000000" stroke="none">
<path d="M2175 1781 c-11 -5 -31 -21 -45 -36 -24 -26 -25 -30 -28 -208 -4
-215 0 -241 40 -279 25 -23 39 -28 83 -28 61 0 99 24 121 76 22 52 18 74 -11
74 -19 0 -25 -5 -25 -20 0 -29 -26 -76 -45 -84 -32 -12 -75 -6 -95 14 -19 19
-20 33 -20 214 0 170 2 196 18 215 43 52 125 26 138 -44 5 -29 11 -35 31 -35
19 0 24 4 19 16 -3 9 -6 24 -6 35 0 11 -15 35 -33 55 -26 29 -42 37 -77 40
-25 2 -54 0 -65 -5z"/>
<path d="M2592 1770 c-57 -35 -62 -63 -62 -315 l0 -226 23 3 c21 3 22 8 25
106 l3 102 64 0 c54 0 68 4 94 26 39 33 55 90 47 172 -6 75 -28 116 -72 137
-44 20 -83 19 -122 -5z m115 -44 c27 -23 28 -28 28 -116 0 -84 -2 -93 -24
-111 -16 -13 -39 -19 -77 -19 l-54 0 0 106 c0 112 8 140 43 154 36 14 54 11
84 -14z"/>
<path d="M1410 1504 l0 -276 91 4 c90 3 91 3 125 40 l34 38 0 191 c0 162 -3
195 -17 220 -25 42 -69 59 -157 59 l-76 0 0 -276z m177 212 l28 -24 0 -187 0
-187 -28 -24 c-22 -19 -39 -24 -83 -24 l-54 0 0 235 0 235 54 0 c44 0 61 -5
83 -24z"/>
<path d="M1883 1760 c-59 -36 -63 -54 -63 -305 l0 -226 23 3 c21 3 22 7 25
126 l3 122 69 0 c63 0 70 2 70 20 0 18 -7 20 -70 20 l-70 0 0 79 c0 44 3 87 6
96 9 24 58 45 104 45 33 0 40 3 40 20 0 17 -7 20 -52 20 -35 0 -64 -7 -85 -20z"/>
<path d="M1687 1276 c-11 -28 4 -47 32 -44 20 2 26 8 26 28 0 20 -6 26 -26 28
-17 2 -29 -3 -32 -12z"/>
<path d="M1977 1276 c-11 -28 4 -47 32 -44 20 2 26 8 26 28 0 20 -6 26 -26 28
-17 2 -29 -3 -32 -12z"/>
<path d="M2397 1276 c-11 -28 4 -47 32 -44 20 2 26 8 26 28 0 20 -6 26 -26 28
-17 2 -29 -3 -32 -12z"/>
</g>
</svg>
